<svg xmlns="http://www.w3.org/2000/svg" width="217.477" height="216" viewBox="0 0 217.477 216">
  <g id="principal-icon" transform="translate(-3094.684 1049)">
    <g id="Grupo_7" data-name="Grupo 7" transform="translate(1232.047 407)">
      <g id="Grupo_6" data-name="Grupo 6" transform="translate(1862.637 -1456)">
        <g id="cube" transform="translate(36.492 41.279)">
          <path id="Trazado_6" data-name="Trazado 6" d="M177.381,41.3a7.5,7.5,0,0,0-2.749-2.749L109.6,1.007a7.509,7.509,0,0,0-7.51,0L37.051,38.556A7.508,7.508,0,0,0,34.3,41.3l71.54,41.3Z" transform="translate(-33.295 0)" fill="#00d7df"/>
          <path id="Trazado_7" data-name="Trazado 7" d="M256,251.912a7.5,7.5,0,0,0,3.755-1.006l65.036-37.549a7.51,7.51,0,0,0,3.755-6.5v-75.1A7.5,7.5,0,0,0,327.54,128L256,169.3Z" transform="translate(-183.454 -86.696)" fill="#5286fa"/>
          <path id="Trazado_8" data-name="Trazado 8" d="M99.973,250.906a7.5,7.5,0,0,0,3.755,1.006V169.3L32.187,128a7.5,7.5,0,0,0-1.006,3.755v75.1a7.509,7.509,0,0,0,3.755,6.5Z" transform="translate(-31.181 -86.696)" fill="#424ede"/>
        </g>
        <g id="cube-2" data-name="cube" transform="translate(118.984 103.846)">
          <path id="Trazado_6-2" data-name="Trazado 6" d="M131.429,28.039a5.1,5.1,0,0,0-1.866-1.866L85.414.684a5.1,5.1,0,0,0-5.1,0L36.168,26.173A5.1,5.1,0,0,0,34.3,28.039L82.865,56.077Z" transform="translate(-33.618 0)" fill="#00d7df"/>
          <path id="Trazado_7-2" data-name="Trazado 7" d="M256,212.115a5.093,5.093,0,0,0,2.549-.683l44.149-25.49a5.1,5.1,0,0,0,2.549-4.415V130.549a5.092,5.092,0,0,0-.683-2.549L256,156.038Z" transform="translate(-206.754 -99.962)" fill="#5286fa"/>
          <path id="Trazado_8-2" data-name="Trazado 8" d="M77.879,211.432a5.093,5.093,0,0,0,2.549.683V156.038L31.864,128a5.094,5.094,0,0,0-.683,2.549v50.979a5.1,5.1,0,0,0,2.549,4.415Z" transform="translate(-31.181 -99.962)" fill="#424ede"/>
        </g>
        <g id="cube-3" data-name="cube" transform="translate(0 103.846)">
          <path id="Trazado_6-3" data-name="Trazado 6" d="M131.429,28.039a5.1,5.1,0,0,0-1.866-1.866L85.414.684a5.1,5.1,0,0,0-5.1,0L36.168,26.173A5.1,5.1,0,0,0,34.3,28.039L82.865,56.077Z" transform="translate(-33.618 0)" fill="#00d7df"/>
          <path id="Trazado_7-3" data-name="Trazado 7" d="M256,212.115a5.093,5.093,0,0,0,2.549-.683l44.149-25.49a5.1,5.1,0,0,0,2.549-4.415V130.549a5.092,5.092,0,0,0-.683-2.549L256,156.038Z" transform="translate(-206.754 -99.962)" fill="#5286fa"/>
          <path id="Trazado_8-3" data-name="Trazado 8" d="M77.879,211.432a5.093,5.093,0,0,0,2.549.683V156.038L31.864,128a5.094,5.094,0,0,0-.683,2.549v50.979a5.1,5.1,0,0,0,2.549,4.415Z" transform="translate(-31.181 -99.962)" fill="#424ede"/>
        </g>
        <g id="cube-4" data-name="cube" transform="translate(29.4 101.287)">
          <path id="Trazado_6-4" data-name="Trazado 6" d="M73.445,11.3a2.053,2.053,0,0,0-.752-.752L54.9.276a2.054,2.054,0,0,0-2.055,0L35.054,10.548a2.054,2.054,0,0,0-.752.752L53.873,22.6Z" transform="translate(-34.026 0)" fill="#00d7df"/>
          <path id="Trazado_7-4" data-name="Trazado 7" d="M256,161.9a2.052,2.052,0,0,0,1.027-.275l17.792-10.273a2.054,2.054,0,0,0,1.027-1.779V129.027a2.052,2.052,0,0,0-.275-1.027L256,139.3Z" transform="translate(-236.154 -116.7)" fill="#5286fa"/>
          <path id="Trazado_8-4" data-name="Trazado 8" d="M50,161.624a2.053,2.053,0,0,0,1.027.275V139.3L31.456,128a2.053,2.053,0,0,0-.275,1.027v20.545a2.054,2.054,0,0,0,1.027,1.779Z" transform="translate(-31.181 -116.7)" fill="#424ede"/>
        </g>
        <g id="cube-5" data-name="cube" transform="translate(148.384 101.287)">
          <path id="Trazado_6-5" data-name="Trazado 6" d="M73.445,11.3a2.053,2.053,0,0,0-.752-.752L54.9.276a2.054,2.054,0,0,0-2.055,0L35.054,10.548a2.054,2.054,0,0,0-.752.752L53.873,22.6Z" transform="translate(-34.026 0)" fill="#00d7df"/>
          <path id="Trazado_7-5" data-name="Trazado 7" d="M256,161.9a2.052,2.052,0,0,0,1.027-.275l17.792-10.273a2.054,2.054,0,0,0,1.027-1.779V129.027a2.052,2.052,0,0,0-.275-1.027L256,139.3Z" transform="translate(-236.154 -116.7)" fill="#5286fa"/>
          <path id="Trazado_8-5" data-name="Trazado 8" d="M50,161.624a2.053,2.053,0,0,0,1.027.275V139.3L31.456,128a2.053,2.053,0,0,0-.275,1.027v20.545a2.054,2.054,0,0,0,1.027,1.779Z" transform="translate(-31.181 -116.7)" fill="#424ede"/>
        </g>
        <g id="cube-6" data-name="cube" transform="translate(59.792 0)">
          <path id="Trazado_6-6" data-name="Trazado 6" d="M131.429,28.039a5.1,5.1,0,0,0-1.866-1.866L85.414.684a5.1,5.1,0,0,0-5.1,0L36.168,26.173A5.1,5.1,0,0,0,34.3,28.039L82.865,56.077Z" transform="translate(-33.618 0)" fill="#00d7df"/>
          <path id="Trazado_7-6" data-name="Trazado 7" d="M256,212.115a5.093,5.093,0,0,0,2.549-.683l44.149-25.49a5.1,5.1,0,0,0,2.549-4.415V130.549a5.092,5.092,0,0,0-.683-2.549L256,156.038Z" transform="translate(-206.754 -99.962)" fill="#5286fa"/>
          <path id="Trazado_8-6" data-name="Trazado 8" d="M77.879,211.432a5.093,5.093,0,0,0,2.549.683V156.038L31.864,128a5.094,5.094,0,0,0-.683,2.549v50.979a5.1,5.1,0,0,0,2.549,4.415Z" transform="translate(-31.181 -99.962)" fill="#424ede"/>
        </g>
      </g>
    </g>
  </g>
</svg>
